<svg width="173" height="36" viewBox="0 0 173 36" fill="none" xmlns="http://www.w3.org/2000/svg">
<path d="M27.8203 0.875V35H20.7891L7.07812 12.125V35H0.046875V0.875H7.07812L20.8125 23.7734V0.875H27.8203Z" fill="black"/>
<path d="M41.4141 0.875V35H34.4062V0.875H41.4141Z" fill="black"/>
<path d="M61.2891 22.8359H52.5938V17.3516H61.2891C62.6328 17.3516 63.7266 17.1328 64.5703 16.6953C65.4141 16.2422 66.0312 15.6172 66.4219 14.8203C66.8125 14.0234 67.0078 13.125 67.0078 12.125C67.0078 11.1094 66.8125 10.1641 66.4219 9.28906C66.0312 8.41406 65.4141 7.71094 64.5703 7.17969C63.7266 6.64844 62.6328 6.38281 61.2891 6.38281H55.0312V35H48V0.875H61.2891C63.9609 0.875 66.25 1.35938 68.1562 2.32812C70.0781 3.28125 71.5469 4.60156 72.5625 6.28906C73.5781 7.97656 74.0859 9.90625 74.0859 12.0781C74.0859 14.2812 73.5781 16.1875 72.5625 17.7969C71.5469 19.4062 70.0781 20.6484 68.1562 21.5234C66.25 22.3984 63.9609 22.8359 61.2891 22.8359Z" fill="black"/>
<path d="M106.969 17.1406V18.7578C106.969 21.3516 106.617 23.6797 105.914 25.7422C105.211 27.8047 104.219 29.5625 102.938 31.0156C101.656 32.4531 100.125 33.5547 98.3438 34.3203C96.5781 35.0859 94.6172 35.4688 92.4609 35.4688C90.3203 35.4688 88.3594 35.0859 86.5781 34.3203C84.8125 33.5547 83.2812 32.4531 81.9844 31.0156C80.6875 29.5625 79.6797 27.8047 78.9609 25.7422C78.2578 23.6797 77.9062 21.3516 77.9062 18.7578V17.1406C77.9062 14.5312 78.2578 12.2031 78.9609 10.1562C79.6641 8.09375 80.6562 6.33594 81.9375 4.88281C83.2344 3.42969 84.7656 2.32031 86.5312 1.55469C88.3125 0.789062 90.2734 0.40625 92.4141 0.40625C94.5703 0.40625 96.5312 0.789062 98.2969 1.55469C100.078 2.32031 101.609 3.42969 102.891 4.88281C104.188 6.33594 105.188 8.09375 105.891 10.1562C106.609 12.2031 106.969 14.5312 106.969 17.1406ZM99.8672 18.7578V17.0938C99.8672 15.2812 99.7031 13.6875 99.375 12.3125C99.0469 10.9375 98.5625 9.78125 97.9219 8.84375C97.2812 7.90625 96.5 7.20312 95.5781 6.73438C94.6562 6.25 93.6016 6.00781 92.4141 6.00781C91.2266 6.00781 90.1719 6.25 89.25 6.73438C88.3438 7.20312 87.5703 7.90625 86.9297 8.84375C86.3047 9.78125 85.8281 10.9375 85.5 12.3125C85.1719 13.6875 85.0078 15.2812 85.0078 17.0938V18.7578C85.0078 20.5547 85.1719 22.1484 85.5 23.5391C85.8281 24.9141 86.3125 26.0781 86.9531 27.0312C87.5938 27.9688 88.375 28.6797 89.2969 29.1641C90.2188 29.6484 91.2734 29.8906 92.4609 29.8906C93.6484 29.8906 94.7031 29.6484 95.625 29.1641C96.5469 28.6797 97.3203 27.9688 97.9453 27.0312C98.5703 26.0781 99.0469 24.9141 99.375 23.5391C99.7031 22.1484 99.8672 20.5547 99.8672 18.7578Z" fill="black"/>
<path d="M140.062 17.1406V18.7578C140.062 21.3516 139.711 23.6797 139.008 25.7422C138.305 27.8047 137.312 29.5625 136.031 31.0156C134.75 32.4531 133.219 33.5547 131.438 34.3203C129.672 35.0859 127.711 35.4688 125.555 35.4688C123.414 35.4688 121.453 35.0859 119.672 34.3203C117.906 33.5547 116.375 32.4531 115.078 31.0156C113.781 29.5625 112.773 27.8047 112.055 25.7422C111.352 23.6797 111 21.3516 111 18.7578V17.1406C111 14.5312 111.352 12.2031 112.055 10.1562C112.758 8.09375 113.75 6.33594 115.031 4.88281C116.328 3.42969 117.859 2.32031 119.625 1.55469C121.406 0.789062 123.367 0.40625 125.508 0.40625C127.664 0.40625 129.625 0.789062 131.391 1.55469C133.172 2.32031 134.703 3.42969 135.984 4.88281C137.281 6.33594 138.281 8.09375 138.984 10.1562C139.703 12.2031 140.062 14.5312 140.062 17.1406ZM132.961 18.7578V17.0938C132.961 15.2812 132.797 13.6875 132.469 12.3125C132.141 10.9375 131.656 9.78125 131.016 8.84375C130.375 7.90625 129.594 7.20312 128.672 6.73438C127.75 6.25 126.695 6.00781 125.508 6.00781C124.32 6.00781 123.266 6.25 122.344 6.73438C121.438 7.20312 120.664 7.90625 120.023 8.84375C119.398 9.78125 118.922 10.9375 118.594 12.3125C118.266 13.6875 118.102 15.2812 118.102 17.0938V18.7578C118.102 20.5547 118.266 22.1484 118.594 23.5391C118.922 24.9141 119.406 26.0781 120.047 27.0312C120.688 27.9688 121.469 28.6797 122.391 29.1641C123.312 29.6484 124.367 29.8906 125.555 29.8906C126.742 29.8906 127.797 29.6484 128.719 29.1641C129.641 28.6797 130.414 27.9688 131.039 27.0312C131.664 26.0781 132.141 24.9141 132.469 23.5391C132.797 22.1484 132.961 20.5547 132.961 18.7578Z" fill="black"/>
<path d="M172.898 0.875V35H165.867L152.156 12.125V35H145.125V0.875H152.156L165.891 23.7734V0.875H172.898Z" fill="black"/>
</svg>
